<svg width="18" height="25" viewBox="0 0 18 25" fill="none" xmlns="http://www.w3.org/2000/svg">
<path d="M13.7473 0H3.74926C2.7549 0 1.80126 0.39501 1.09814 1.09813C0.39502 1.80125 9.85169e-06 2.75489 9.85169e-06 3.74925V23.7453C-0.000864434 23.9655 0.056467 24.182 0.166199 24.373C0.275932 24.5639 0.434168 24.7225 0.624886 24.8326C0.814872 24.9423 1.03038 25 1.24976 25C1.46914 25 1.68465 24.9423 1.87464 24.8326L8.74827 20.8584L15.6219 24.8326C15.8124 24.9405 16.0279 24.9965 16.2468 24.995C16.4657 24.9965 16.6812 24.9405 16.8717 24.8326C17.0624 24.7225 17.2206 24.5639 17.3303 24.373C17.4401 24.182 17.4974 23.9655 17.4965 23.7453V3.74925C17.4965 2.75489 17.1015 1.80125 16.3984 1.09813C15.6953 0.39501 14.7416 0 13.7473 0ZM14.997 21.5832L9.37315 18.3339C9.18316 18.2242 8.96765 18.1664 8.74827 18.1664C8.52889 18.1664 8.31338 18.2242 8.12339 18.3339L2.49951 21.5832V3.74925C2.49951 3.4178 2.63118 3.09992 2.86556 2.86555C3.09993 2.63117 3.41781 2.4995 3.74926 2.4995H13.7473C14.0787 2.4995 14.3966 2.63117 14.631 2.86555C14.8654 3.09992 14.997 3.4178 14.997 3.74925V21.5832Z" fill="#491D46"/>
</svg>
