<svg width="50" height="49" viewBox="0 0 50 49" fill="none" xmlns="http://www.w3.org/2000/svg">
<path d="M14.9295 12.495V13.495C15.2828 13.495 15.6098 13.3086 15.7899 13.0047L14.9295 12.495ZM18.413 6.61501V5.61501C18.0598 5.61501 17.7327 5.80138 17.5527 6.1053L18.413 6.61501ZM31.3519 6.61501L32.2122 6.1053C32.0321 5.80138 31.7051 5.61501 31.3519 5.61501V6.61501ZM34.8354 12.495L33.975 13.0047C34.1551 13.3086 34.4821 13.495 34.8354 13.495V12.495ZM5.97656 37.485V17.395H3.97656V37.485H5.97656ZM9.95303 13.495H14.9295V11.495H9.95303V13.495ZM15.7899 13.0047L19.2734 7.12471L17.5527 6.1053L14.0692 11.9853L15.7899 13.0047ZM18.413 7.61501H31.3519V5.61501H18.413V7.61501ZM30.4915 7.12471L33.975 13.0047L35.6957 11.9853L32.2122 6.1053L30.4915 7.12471ZM34.8354 13.495H39.8118V11.495H34.8354V13.495ZM43.7883 17.395V37.485H45.7883V17.395H43.7883ZM43.7883 37.485C43.7883 39.6244 42.0226 41.385 39.8118 41.385V43.385C43.0979 43.385 45.7883 40.758 45.7883 37.485H43.7883ZM39.8118 13.495C42.0226 13.495 43.7883 15.2556 43.7883 17.395H45.7883C45.7883 14.122 43.0979 11.495 39.8118 11.495V13.495ZM5.97656 17.395C5.97656 15.2556 7.74223 13.495 9.95303 13.495V11.495C6.66698 11.495 3.97656 14.122 3.97656 17.395H5.97656ZM9.95303 41.385C7.74223 41.385 5.97656 39.6244 5.97656 37.485H3.97656C3.97656 40.758 6.66697 43.385 9.95303 43.385V41.385ZM31.3471 26.215C31.3471 29.7075 28.4675 32.565 24.8824 32.565V34.565C29.5427 34.565 33.3471 30.8411 33.3471 26.215H31.3471ZM24.8824 32.565C21.2974 32.565 18.4177 29.7075 18.4177 26.215H16.4177C16.4177 30.8411 20.2222 34.565 24.8824 34.565V32.565ZM18.4177 26.215C18.4177 22.7225 21.2974 19.865 24.8824 19.865V17.865C20.2222 17.865 16.4177 21.5889 16.4177 26.215H18.4177ZM24.8824 19.865C28.4675 19.865 31.3471 22.7225 31.3471 26.215H33.3471C33.3471 21.5889 29.5427 17.865 24.8824 17.865V19.865ZM39.8118 41.385H9.95303V43.385H39.8118V41.385Z" fill="#491D46"/>
</svg>
