<svg width="24" height="24" viewBox="0 0 24 24" fill="none" xmlns="http://www.w3.org/2000/svg">
<path d="M7.33093 12.3667C6.90666 12.7202 6.84933 13.3508 7.2029 13.7751C7.55646 14.1993 8.18703 14.2567 8.6113 13.9031L7.33093 12.3667ZM12.2138 9.59932L12.854 8.83109C12.4831 8.52206 11.9444 8.52206 11.5736 8.83109L12.2138 9.59932ZM15.8163 13.9031C16.2406 14.2567 16.8711 14.1993 17.2247 13.7751C17.5782 13.3508 17.5209 12.7202 17.0966 12.3667L15.8163 13.9031ZM8.6113 13.9031L12.854 10.3675L11.5736 8.83109L7.33093 12.3667L8.6113 13.9031ZM11.5736 10.3675L15.8163 13.9031L17.0966 12.3667L12.854 8.83109L11.5736 10.3675ZM20.6 11.9999C20.6 16.7496 16.7497 20.5999 12 20.5999V22.5999C17.8542 22.5999 22.6 17.8541 22.6 11.9999H20.6ZM12 20.5999C7.25038 20.5999 3.40002 16.7496 3.40002 11.9999H1.40002C1.40002 17.8541 6.14581 22.5999 12 22.5999V20.5999ZM3.40002 11.9999C3.40002 7.25025 7.25038 3.3999 12 3.3999V1.3999C6.14581 1.3999 1.40002 6.14568 1.40002 11.9999H3.40002ZM12 3.3999C16.7497 3.3999 20.6 7.25025 20.6 11.9999H22.6C22.6 6.14568 17.8542 1.3999 12 1.3999V3.3999Z" fill="black"/>
</svg>
