<svg width="22" height="22" viewBox="0 0 22 22" fill="none" xmlns="http://www.w3.org/2000/svg">
<path d="M15.6371 10.9782C16.0614 10.6246 16.1187 9.99408 15.7651 9.5698C15.4116 9.14553 14.781 9.0882 14.3567 9.44177L15.6371 10.9782ZM10.7719 13.7308L10.1317 14.499C10.5026 14.8081 11.0413 14.8081 11.4121 14.499L10.7719 13.7308ZM7.1871 9.44176C6.76283 9.0882 6.13226 9.14552 5.7787 9.5698C5.42513 9.99408 5.48246 10.6246 5.90673 10.9782L7.1871 9.44176ZM14.3567 9.44177L10.1317 12.9626L11.4121 14.499L15.6371 10.9782L14.3567 9.44177ZM11.4121 12.9626L7.1871 9.44176L5.90673 10.9782L10.1317 14.499L11.4121 12.9626ZM19.12 11.4056C19.12 16.1331 15.2876 19.9656 10.56 19.9656V21.9656C16.3921 21.9656 21.12 17.2377 21.12 11.4056H19.12ZM10.56 19.9656C5.83244 19.9656 2 16.1331 2 11.4056H0C0 17.2377 4.72787 21.9656 10.56 21.9656V19.9656ZM2 11.4056C2 6.67802 5.83244 2.84558 10.56 2.84558V0.845581C4.72787 0.845581 0 5.57345 0 11.4056H2ZM10.56 2.84558C15.2876 2.84558 19.12 6.67802 19.12 11.4056H21.12C21.12 5.57345 16.3921 0.845581 10.56 0.845581V2.84558Z" fill="#491D46"/>
</svg>
