<svg width="21" height="21" viewBox="0 0 21 21" fill="none" xmlns="http://www.w3.org/2000/svg">
<path d="M20.2668 8.48403C19.9717 8.12981 19.6025 7.84467 19.1852 7.64872C18.7678 7.45278 18.3126 7.35082 17.8516 7.35003H13.0631L13.6512 5.84853C13.8958 5.19111 13.9772 4.48417 13.8886 3.78836C13.7999 3.09254 13.5438 2.42861 13.1421 1.85353C12.7404 1.27845 12.2052 0.809381 11.5824 0.486556C10.9596 0.163731 10.2678 -0.00321239 9.56633 4.68207e-05C9.36434 0.00046825 9.16675 0.0591357 8.99726 0.169015C8.82777 0.278895 8.69357 0.435323 8.61075 0.619545L5.61799 7.35003H3.15027C2.31477 7.35003 1.51349 7.6819 0.922694 8.27264C0.331903 8.86338 0 9.66459 0 10.5V17.85C0 18.6854 0.331903 19.4867 0.922694 20.0774C1.51349 20.6681 2.31477 21 3.15027 21H16.5179C17.2549 20.9998 17.9685 20.7412 18.5345 20.2692C19.1004 19.7973 19.4831 19.1419 19.6157 18.417L20.9493 11.067C21.0318 10.6128 21.0134 10.1459 20.8955 9.69958C20.7775 9.25323 20.5629 8.83825 20.2668 8.48403ZM5.25046 18.9H3.15027C2.87177 18.9 2.60468 18.7894 2.40775 18.5925C2.21082 18.3956 2.10018 18.1285 2.10018 17.85V10.5C2.10018 10.2215 2.21082 9.95448 2.40775 9.75756C2.60468 9.56065 2.87177 9.45003 3.15027 9.45003H5.25046V18.9ZM18.9016 10.689L17.568 18.039C17.5233 18.2836 17.3932 18.5044 17.2009 18.6621C17.0086 18.8197 16.7666 18.9041 16.5179 18.9H7.35064V8.62053L10.2069 2.19454C10.5009 2.28025 10.7739 2.42597 11.0088 2.6225C11.2436 2.81904 11.4352 3.06212 11.5714 3.33641C11.7075 3.61069 11.7854 3.91023 11.7999 4.2161C11.8145 4.52198 11.7655 4.82755 11.656 5.11354L11.0995 6.61503C10.9809 6.9324 10.9408 7.27375 10.9828 7.60994C11.0247 7.94613 11.1474 8.26719 11.3403 8.5457C11.5332 8.82422 11.7907 9.05194 12.0907 9.20941C12.3907 9.36688 12.7243 9.44943 13.0631 9.45003H17.8516C18.0058 9.44978 18.1583 9.48352 18.298 9.54885C18.4378 9.61418 18.5614 9.7095 18.6601 9.82802C18.7613 9.94491 18.8354 10.0827 18.8771 10.2315C18.9189 10.3804 18.9273 10.5366 18.9016 10.689Z" fill="#491D46"/>
</svg>
