<svg width="24" height="24" viewBox="0 0 24 24" fill="none" xmlns="http://www.w3.org/2000/svg">
<path d="M17.0957 11.5675C17.52 11.214 17.5773 10.5834 17.2237 10.1591C16.8701 9.73484 16.2396 9.67752 15.8153 10.0311L17.0957 11.5675ZM12.2128 14.3349L11.5726 15.1031C11.9435 15.4121 12.4822 15.4121 12.853 15.1031L12.2128 14.3349ZM8.61034 10.0311C8.18606 9.67752 7.55549 9.73484 7.20193 10.1591C6.84837 10.5834 6.90569 11.214 7.32997 11.5675L8.61034 10.0311ZM15.8153 10.0311L11.5726 13.5666L12.853 15.1031L17.0957 11.5675L15.8153 10.0311ZM12.853 13.5666L8.61034 10.0311L7.32997 11.5675L11.5726 15.1031L12.853 13.5666ZM20.6 11.9999C20.6 16.7496 16.7497 20.5999 12 20.5999V22.5999C17.8542 22.5999 22.6 17.8541 22.6 11.9999H20.6ZM12 20.5999C7.25037 20.5999 3.40002 16.7496 3.40002 11.9999H1.40002C1.40002 17.8541 6.14581 22.5999 12 22.5999V20.5999ZM3.40002 11.9999C3.40002 7.25025 7.25037 3.3999 12 3.3999V1.3999C6.14581 1.3999 1.40002 6.14568 1.40002 11.9999H3.40002ZM12 3.3999C16.7497 3.3999 20.6 7.25025 20.6 11.9999H22.6C22.6 6.14568 17.8542 1.3999 12 1.3999V3.3999Z" fill="black"/>
</svg>
